name rise43.5482peak65.4966fall89.1036.mot
datacolumns 19
datarows 36
range 7.88496700000000 7.94329400000000
endheader
time	ground_force1_vx	ground_force1_vy	ground_force1_vz	ground_force1_px	ground_force1_py	ground_force1_pz	ground_force2_vx	ground_force2_vy	ground_force2_vz	ground_force2_px	ground_force2_py	ground_force2_pz	ground_torque1_x	ground_torque1_y	ground_torque1_z	ground_torque2_x	ground_torque2_y	ground_torque2_z	
7.88496700000000	5.68953900000000	717.69124999999997	42.29635000000000	0.16324200000000	0.00000000000000	0.10439400000000	0.00000000000000	0.00000000000000	0.00000000000000	0.00000000000000	0.00000000000000	0.00000000000000	0.00000000000000	11.80320400000000	0.00000000000000	0.00000000000000	0.00000000000000	0.00000000000000	
7.88663000000000	5.48956000000000	718.06479899999999	42.36220000000000	0.16252500000000	0.00000000000000	0.10439600000000	0.00000000000000	0.00000000000000	0.00000000000000	0.00000000000000	0.00000000000000	0.00000000000000	0.00000000000000	11.82278000000000	0.00000000000000	0.00000000000000	0.00000000000000	0.00000000000000	
7.88830900000000	5.27143900000000	718.42785800000001	42.42971800000000	0.16178500000000	0.00000000000000	0.10439900000000	0.00000000000000	0.00000000000000	0.00000000000000	0.00000000000000	0.00000000000000	0.00000000000000	0.00000000000000	11.84602600000000	0.00000000000000	0.00000000000000	0.00000000000000	0.00000000000000	
7.88996200000000	5.03485300000000	718.78083600000002	42.49859100000000	0.16102400000000	0.00000000000000	0.10440300000000	0.00000000000000	0.00000000000000	0.00000000000000	0.00000000000000	0.00000000000000	0.00000000000000	0.00000000000000	11.87290700000000	0.00000000000000	0.00000000000000	0.00000000000000	0.00000000000000	
7.89163200000000	4.77954000000000	719.12434499999995	42.56852500000000	0.16024100000000	0.00000000000000	0.10440900000000	0.00000000000000	0.00000000000000	0.00000000000000	0.00000000000000	0.00000000000000	0.00000000000000	0.00000000000000	11.90338400000000	0.00000000000000	0.00000000000000	0.00000000000000	0.00000000000000	
7.89332200000000	4.50529100000000	719.45918900000004	42.63924800000000	0.15943700000000	0.00000000000000	0.10441500000000	0.00000000000000	0.00000000000000	0.00000000000000	0.00000000000000	0.00000000000000	0.00000000000000	0.00000000000000	11.93742100000000	0.00000000000000	0.00000000000000	0.00000000000000	0.00000000000000	
7.89496200000000	4.21195700000000	719.78636200000005	42.71050800000000	0.15861300000000	0.00000000000000	0.10442200000000	0.00000000000000	0.00000000000000	0.00000000000000	0.00000000000000	0.00000000000000	0.00000000000000	0.00000000000000	11.97497800000000	0.00000000000000	0.00000000000000	0.00000000000000	0.00000000000000	
7.89662900000000	3.89944400000000	720.10704399999997	42.78207700000000	0.15777000000000	0.00000000000000	0.10443100000000	0.00000000000000	0.00000000000000	0.00000000000000	0.00000000000000	0.00000000000000	0.00000000000000	0.00000000000000	12.01601700000000	0.00000000000000	0.00000000000000	0.00000000000000	0.00000000000000	
7.89830500000000	3.56771200000000	720.42259200000001	42.85374600000000	0.15690800000000	0.00000000000000	0.10444000000000	0.00000000000000	0.00000000000000	0.00000000000000	0.00000000000000	0.00000000000000	0.00000000000000	0.00000000000000	12.06049900000000	0.00000000000000	0.00000000000000	0.00000000000000	0.00000000000000	
7.89996200000000	3.21677600000000	720.73452899999995	42.92532800000000	0.15602900000000	0.00000000000000	0.10445000000000	0.00000000000000	0.00000000000000	0.00000000000000	0.00000000000000	0.00000000000000	0.00000000000000	0.00000000000000	12.10838200000000	0.00000000000000	0.00000000000000	0.00000000000000	0.00000000000000	
7.90163500000000	2.84670500000000	721.04454399999997	42.99665800000000	0.15513300000000	0.00000000000000	0.10446000000000	0.00000000000000	0.00000000000000	0.00000000000000	0.00000000000000	0.00000000000000	0.00000000000000	0.00000000000000	12.15962600000000	0.00000000000000	0.00000000000000	0.00000000000000	0.00000000000000	
7.90331100000000	2.45761900000000	721.35447199999999	43.06759500000000	0.15422100000000	0.00000000000000	0.10447100000000	0.00000000000000	0.00000000000000	0.00000000000000	0.00000000000000	0.00000000000000	0.00000000000000	0.00000000000000	12.21418700000000	0.00000000000000	0.00000000000000	0.00000000000000	0.00000000000000	
7.90496200000000	2.04968700000000	721.66629300000000	43.13801500000000	0.15329600000000	0.00000000000000	0.10448300000000	0.00000000000000	0.00000000000000	0.00000000000000	0.00000000000000	0.00000000000000	0.00000000000000	0.00000000000000	12.27201800000000	0.00000000000000	0.00000000000000	0.00000000000000	0.00000000000000	
7.90662800000000	1.62313000000000	721.98211500000002	43.20781800000000	0.15235700000000	0.00000000000000	0.10449500000000	0.00000000000000	0.00000000000000	0.00000000000000	0.00000000000000	0.00000000000000	0.00000000000000	0.00000000000000	12.33307400000000	0.00000000000000	0.00000000000000	0.00000000000000	0.00000000000000	
7.90829800000000	1.17821400000000	722.30416600000001	43.27692500000000	0.15140500000000	0.00000000000000	0.10450800000000	0.00000000000000	0.00000000000000	0.00000000000000	0.00000000000000	0.00000000000000	0.00000000000000	0.00000000000000	12.39730300000000	0.00000000000000	0.00000000000000	0.00000000000000	0.00000000000000	
7.90998000000000	0.71525300000000	722.63477899999998	43.34527700000000	0.15044300000000	0.00000000000000	0.10452100000000	0.00000000000000	0.00000000000000	0.00000000000000	0.00000000000000	0.00000000000000	0.00000000000000	0.00000000000000	12.46465400000000	0.00000000000000	0.00000000000000	0.00000000000000	0.00000000000000	
7.91163100000000	0.23460400000000	722.97637999999995	43.41283500000000	0.14947100000000	0.00000000000000	0.10453400000000	0.00000000000000	0.00000000000000	0.00000000000000	0.00000000000000	0.00000000000000	0.00000000000000	0.00000000000000	12.53507100000000	0.00000000000000	0.00000000000000	0.00000000000000	0.00000000000000	
7.91330800000000	-0.26333300000000	723.33147499999995	43.47958100000000	0.14849000000000	0.00000000000000	0.10454700000000	0.00000000000000	0.00000000000000	0.00000000000000	0.00000000000000	0.00000000000000	0.00000000000000	0.00000000000000	12.60849300000000	0.00000000000000	0.00000000000000	0.00000000000000	0.00000000000000	
7.91496400000000	-0.77811800000000	723.70263499999999	43.54551500000000	0.14750200000000	0.00000000000000	0.10456100000000	0.00000000000000	0.00000000000000	0.00000000000000	0.00000000000000	0.00000000000000	0.00000000000000	0.00000000000000	12.68486000000000	0.00000000000000	0.00000000000000	0.00000000000000	0.00000000000000	
7.91662900000000	-1.30927200000000	724.09248200000002	43.61065700000000	0.14650700000000	0.00000000000000	0.10457400000000	0.00000000000000	0.00000000000000	0.00000000000000	0.00000000000000	0.00000000000000	0.00000000000000	0.00000000000000	12.76410300000000	0.00000000000000	0.00000000000000	0.00000000000000	0.00000000000000	
7.91829400000000	-1.85627700000000	724.50367600000004	43.67504600000000	0.14550700000000	0.00000000000000	0.10458700000000	0.00000000000000	0.00000000000000	0.00000000000000	0.00000000000000	0.00000000000000	0.00000000000000	0.00000000000000	12.84615200000000	0.00000000000000	0.00000000000000	0.00000000000000	0.00000000000000	
7.91996200000000	-2.41858300000000	724.93889700000000	43.73873800000000	0.14450300000000	0.00000000000000	0.10460100000000	0.00000000000000	0.00000000000000	0.00000000000000	0.00000000000000	0.00000000000000	0.00000000000000	0.00000000000000	12.93093200000000	0.00000000000000	0.00000000000000	0.00000000000000	0.00000000000000	
7.92163400000000	-2.99560400000000	725.40082900000004	43.80180800000000	0.14349700000000	0.00000000000000	0.10461400000000	0.00000000000000	0.00000000000000	0.00000000000000	0.00000000000000	0.00000000000000	0.00000000000000	0.00000000000000	13.01836100000000	0.00000000000000	0.00000000000000	0.00000000000000	0.00000000000000	
7.92329600000000	-3.58672700000000	725.89214700000002	43.86434800000000	0.14248800000000	0.00000000000000	0.10462700000000	0.00000000000000	0.00000000000000	0.00000000000000	0.00000000000000	0.00000000000000	0.00000000000000	0.00000000000000	13.10835600000000	0.00000000000000	0.00000000000000	0.00000000000000	0.00000000000000	
7.92496700000000	-4.19130500000000	726.41550299999994	43.92646300000000	0.14147900000000	0.00000000000000	0.10464000000000	0.00000000000000	0.00000000000000	0.00000000000000	0.00000000000000	0.00000000000000	0.00000000000000	0.00000000000000	13.20082700000000	0.00000000000000	0.00000000000000	0.00000000000000	0.00000000000000	
7.92663600000000	-4.80866800000000	726.97350300000005	43.98827800000000	0.14047100000000	0.00000000000000	0.10465300000000	0.00000000000000	0.00000000000000	0.00000000000000	0.00000000000000	0.00000000000000	0.00000000000000	0.00000000000000	13.29567600000000	0.00000000000000	0.00000000000000	0.00000000000000	0.00000000000000	
7.92829900000000	-5.43812000000000	727.56869900000004	44.04993200000000	0.13946400000000	0.00000000000000	0.10466500000000	0.00000000000000	0.00000000000000	0.00000000000000	0.00000000000000	0.00000000000000	0.00000000000000	0.00000000000000	13.39280500000000	0.00000000000000	0.00000000000000	0.00000000000000	0.00000000000000	
7.92996700000000	-6.07894000000000	728.20357100000001	44.11157600000000	0.13845900000000	0.00000000000000	0.10467700000000	0.00000000000000	0.00000000000000	0.00000000000000	0.00000000000000	0.00000000000000	0.00000000000000	0.00000000000000	13.49210700000000	0.00000000000000	0.00000000000000	0.00000000000000	0.00000000000000	
7.93163100000000	-6.73039000000000	728.88050899999996	44.17337800000000	0.13745800000000	0.00000000000000	0.10468900000000	0.00000000000000	0.00000000000000	0.00000000000000	0.00000000000000	0.00000000000000	0.00000000000000	0.00000000000000	13.59347000000000	0.00000000000000	0.00000000000000	0.00000000000000	0.00000000000000	
7.93330000000000	-7.39171100000000	729.60180000000003	44.23551700000000	0.13646100000000	0.00000000000000	0.10470000000000	0.00000000000000	0.00000000000000	0.00000000000000	0.00000000000000	0.00000000000000	0.00000000000000	0.00000000000000	13.69677800000000	0.00000000000000	0.00000000000000	0.00000000000000	0.00000000000000	
7.93496900000000	-8.06212700000000	730.36961599999995	44.29818300000000	0.13546900000000	0.00000000000000	0.10471100000000	0.00000000000000	0.00000000000000	0.00000000000000	0.00000000000000	0.00000000000000	0.00000000000000	0.00000000000000	13.80190700000000	0.00000000000000	0.00000000000000	0.00000000000000	0.00000000000000	
7.93663400000000	-8.74084800000000	731.18599500000005	44.36158000000000	0.13448300000000	0.00000000000000	0.10472200000000	0.00000000000000	0.00000000000000	0.00000000000000	0.00000000000000	0.00000000000000	0.00000000000000	0.00000000000000	13.90873000000000	0.00000000000000	0.00000000000000	0.00000000000000	0.00000000000000	
7.93829600000000	-9.42707300000000	732.05282799999998	44.42591900000000	0.13350300000000	0.00000000000000	0.10473200000000	0.00000000000000	0.00000000000000	0.00000000000000	0.00000000000000	0.00000000000000	0.00000000000000	0.00000000000000	14.01711300000000	0.00000000000000	0.00000000000000	0.00000000000000	0.00000000000000	
7.93996600000000	-10.11998800000000	732.97185100000002	44.49142300000000	0.13253100000000	0.00000000000000	0.10474100000000	0.00000000000000	0.00000000000000	0.00000000000000	0.00000000000000	0.00000000000000	0.00000000000000	0.00000000000000	14.12691700000000	0.00000000000000	0.00000000000000	0.00000000000000	0.00000000000000	
7.94162900000000	-10.81877100000000	733.94462499999997	44.55832000000000	0.13156700000000	0.00000000000000	0.10475000000000	0.00000000000000	0.00000000000000	0.00000000000000	0.00000000000000	0.00000000000000	0.00000000000000	0.00000000000000	14.23799800000000	0.00000000000000	0.00000000000000	0.00000000000000	0.00000000000000	
7.94329400000000	-11.52259500000000	734.97253000000001	44.62684800000000	0.13061100000000	0.00000000000000	0.10475900000000	0.00000000000000	0.00000000000000	0.00000000000000	0.00000000000000	0.00000000000000	0.00000000000000	0.00000000000000	14.35020700000000	0.00000000000000	0.00000000000000	0.00000000000000	0.00000000000000	
